<?xml version="1.0" encoding="UTF-8" standalone="no"?>
<svg
   viewBox="0 0 32 32"
   version="1.1"
   id="svg1"
   width="32"
   height="32"
   xmlns="http://www.w3.org/2000/svg"
   xmlns:svg="http://www.w3.org/2000/svg">
  <defs
     id="defs1" />
  <path
     d="m 15.215665,0 c -3.379155,0.38007 -6.44319,3.812495 -6.44319,8.25703 0,2.449245 0.979215,4.61547 2.41441,6.113095 l 1.71228,1.78615 -2.634515,0.42879 C 8.39907,16.888745 7.03127,17.74219 5.86203,19.13174 4.69279,20.521415 3.7989,22.207135 3.172415,24.438355 2.03817,28.480775 2.289625,29.65956 2.25,34.01042 l 27.4115,1.25e-4 c -0.004,-4.404205 0.431935,-5.65112 -0.595865,-9.724095 -0.566615,-2.245875 -1.42565,-3.92871 -2.60892,-5.30261 -1.1837,-1.37377 -2.6147,-2.2222 -4.70921,-2.50322 L 19.058755,16.11996 20.756,14.27858 c 1.373155,-1.48986 2.30406,-3.631289 2.30406,-6.0213 0,-4.738449 -3.42095,-8.245634 -7.144005,-8.245634 z"
     fill="#ffffff"
     fill-opacity="1"
     id="path1"
     style="stroke-width:0.134576" />
</svg>
