<?xml version="1.0" encoding="UTF-8" standalone="no"?>
<svg
   viewBox="0 0 24 24"
   version="1.1"
   id="svg1"
   width="24"
   height="24"
   xmlns="http://www.w3.org/2000/svg"
   xmlns:svg="http://www.w3.org/2000/svg">
  <defs
     id="defs1" />
  <path
     d="M 11.474248,0 C 8.9398827,0.2850525 6.6418563,2.8593713 6.6418563,6.1927729 c 0,1.836933 0.7344112,3.461602 1.8108074,4.5848211 l 1.28421,1.339612 -1.9758862,0.321593 c -1.399185,0.22776 -2.425035,0.867844 -3.301965,1.910006 -0.87693,1.042256 -1.5473475,2.306546 -2.0172112,3.979961 C 1.5911275,21.360581 1.7797188,22.24467 1.75,25.507815 l 20.558624,9.4e-5 c -0.003,-3.303154 0.323952,-4.23834 -0.446898,-7.293071 -0.424962,-1.684407 -1.069238,-2.946533 -1.95669,-3.976958 -0.887775,-1.030327 -1.961025,-1.66665 -3.531908,-1.877415 l -2.016562,-0.270495 1.272933,-1.381035 c 1.029867,-1.1173951 1.728045,-2.7234671 1.728045,-4.5159751 0,-3.5538366 -2.565712,-6.1842254 -5.358003,-6.1842254 z"
     fill="#ffffff"
     fill-opacity="1"
     id="path1"
     style="stroke-width:0.100932" />
</svg>
